<?xml version="1.0" encoding="utf-8"?>
<!-- Generator: Adobe Illustrator 23.0.1, SVG Export Plug-In . SVG Version: 6.00 Build 0)  -->
<!DOCTYPE svg PUBLIC "-//W3C//DTD SVG 1.1//EN" "http://www.w3.org/Graphics/SVG/1.1/DTD/svg11.dtd" [
	<!ENTITY ns_extend "http://ns.adobe.com/Extensibility/1.0/">
	<!ENTITY ns_ai "http://ns.adobe.com/AdobeIllustrator/10.0/">
	<!ENTITY ns_graphs "http://ns.adobe.com/Graphs/1.0/">
	<!ENTITY ns_vars "http://ns.adobe.com/Variables/1.0/">
	<!ENTITY ns_imrep "http://ns.adobe.com/ImageReplacement/1.0/">
	<!ENTITY ns_sfw "http://ns.adobe.com/SaveForWeb/1.0/">
	<!ENTITY ns_custom "http://ns.adobe.com/GenericCustomNamespace/1.0/">
	<!ENTITY ns_adobe_xpath "http://ns.adobe.com/XPath/1.0/">
]>
<svg version="1.1" id="Capa_1" xmlns:x="&ns_extend;" xmlns:i="&ns_ai;" xmlns:graph="&ns_graphs;"
	 xmlns="http://www.w3.org/2000/svg" xmlns:xlink="http://www.w3.org/1999/xlink" x="0px" y="0px" viewBox="0 0 447 447"
	 style="enable-background:new 0 0 447 447;" xml:space="preserve">
<style type="text/css">
	.st0{fill:#293C54;}
	.st1{fill:#CDCECD;}
	.st2{fill:#C13531;}
	.st3{fill:#FFFFFF;}
</style>
<metadata>
	<sfw  xmlns="&ns_sfw;">
		<slices></slices>
		<sliceSourceBounds  bottomLeftOrigin="true" height="16419.7" width="16416.9" x="-7980.1" y="-8004.7"></sliceSourceBounds>
	</sfw>
</metadata>
<g>
	<path class="st0" d="M415.7,73.2H39.6c-1.1,0-2.2,0.1-3.2,0.3h-0.7v0.2c-6.4,1.5-11.2,6.6-11.2,12.6v287.3
		c0,7.2,6.8,13.1,15.2,13.1h376.2c8.4,0,15.2-5.9,15.2-13.1V86.4c0-4.4-2.6-8.4-6.5-10.7l0,0c-0.9-0.7-6.5-2.3-7.9-2.4 M370.9,84.8
		h46c0.6,0.3,1,0.9,1,1.6v34h-47V84.8z M370.9,131.6h47v36.9h-47V131.6z M370.9,179.8h47v39h-47V179.8z M370.9,230h47v42.2h-47V230z
		 M370.9,283.4h47v41.2h-47V283.4z M261.3,84.8h96.6v35.6h-96.6V84.8L261.3,84.8z M261.3,131.6h96.6v36.9h-96.6V131.6L261.3,131.6z
		 M261.3,179.8h96.6v39h-96.6V179.8L261.3,179.8z M261.3,230h96.6v42.2h-96.6V230L261.3,230z M261.3,283.4h96.6v41.2h-96.6V283.4
		L261.3,283.4z M261.3,335.9h96.6v39.7h-96.6V335.9L261.3,335.9z M150.6,84.8h97.7v35.6h-97.7V84.8z M150.6,131.6h97.7v36.9h-97.7
		V131.6z M150.6,179.8h97.7v39h-97.7V179.8z M150.6,230h97.7v42.2h-97.7V230z M150.6,283.4h97.7v41.2h-97.7V283.4z M150.6,335.9
		h97.7v39.7h-97.7V335.9z M37.4,86.4c0-0.7,0.4-1.2,1-1.6h99.1v35.6H37.4V86.4z M37.4,131.6h100.2v36.9H37.4V131.6z M37.4,179.8
		h100.2v39H37.4V179.8z M37.4,230h100.2v42.2H37.4V230z M37.4,283.4h100.2v41.2H37.4V283.4z M37.4,335.9h100.2v39.7h-98
		c-1.2,0-2.2-0.8-2.2-1.9L37.4,335.9L37.4,335.9z M47.4,188.2 M125.6,211.7"/>
</g>
<rect x="379.8" y="91.1" class="st1" width="29.5" height="23.5"/>
<rect x="379.8" y="138.4" class="st1" width="29.5" height="23.5"/>
<rect x="379.7" y="187.5" class="st1" width="29.5" height="23.5"/>
<rect x="379.8" y="239.4" class="st1" width="29.5" height="23.5"/>
<rect x="379.7" y="292.3" class="st1" width="29.5" height="23.5"/>
<rect x="380.7" y="344" width="29.5" height="23.5"/>
<rect x="270.5" y="90.9" class="st2" width="78.1" height="23.5"/>
<rect x="159.8" y="90.9" class="st2" width="78.1" height="23.5"/>
<rect x="47.4" y="90.9" class="st2" width="78.1" height="23.5"/>
<rect x="371.7" y="335.9" class="st3" width="45.4" height="39.8"/>
<rect x="379.7" y="344" class="st1" width="29.5" height="23.5"/>
</svg>
